<?xml version="1.0" encoding="UTF-8" ?>
<!DOCTYPE svg PUBLIC "-//W3C//DTD SVG 1.1//EN" "http://www.w3.org/Graphics/SVG/1.1/DTD/svg11.dtd">
<svg width="641pt" height="462pt" viewBox="0 0 641 462" version="1.1" xmlns="http://www.w3.org/2000/svg">
<path fill="#282828" d=" M 586.72 69.67 C 589.42 77.45 589.52 85.86 589.78 94.01 C 589.20 107.76 591.76 121.34 593.00 134.98 C 597.45 176.33 602.11 217.67 606.46 259.03 C 605.98 270.51 603.55 281.81 601.61 293.12 C 599.84 301.77 598.21 310.58 594.75 318.76 C 593.80 322.16 588.73 319.94 588.97 317.07 C 588.96 314.29 589.77 311.60 590.33 308.91 C 593.09 296.46 592.21 283.59 590.94 271.02 C 586.03 224.93 579.22 179.08 573.37 133.12 C 572.70 126.73 571.50 120.30 572.37 113.88 C 573.51 104.40 576.01 95.14 578.99 86.09 C 581.06 80.41 582.93 74.49 586.72 69.67 Z" />
<path fill="#282828" d=" M 321.43 129.81 C 325.59 120.75 331.93 112.86 338.11 105.10 C 346.79 109.24 354.23 115.58 361.21 122.10 C 356.80 131.12 351.65 140.01 344.67 147.31 C 336.25 142.50 328.14 136.85 321.43 129.81 Z" />
<path fill="#282828" d=" M 145.74 138.85 C 147.60 135.41 148.96 131.48 151.99 128.86 C 152.79 130.08 153.38 131.43 153.56 132.89 C 156.46 153.61 159.91 174.24 163.67 194.82 C 168.04 218.12 172.42 241.53 179.75 264.12 C 181.99 271.35 185.94 278.48 192.57 282.51 C 198.69 286.06 205.84 287.70 212.90 287.34 C 218.88 286.91 224.88 287.85 230.86 287.26 C 241.23 286.52 251.43 282.94 259.93 276.94 C 267.36 271.64 272.29 263.80 277.65 256.60 C 278.73 255.23 280.43 253.21 282.32 254.58 C 284.49 259.69 284.41 265.46 286.25 270.70 C 288.66 278.96 296.49 284.99 304.93 286.01 C 317.21 288.02 330.00 284.30 339.82 276.80 C 350.82 268.51 358.22 255.64 359.93 241.97 C 360.10 238.95 361.38 236.03 364.05 234.43 C 367.89 238.93 366.73 245.40 369.76 250.32 C 374.66 259.23 384.30 264.77 394.03 266.85 C 398.09 267.55 402.74 268.90 406.38 266.23 C 408.27 264.91 411.73 263.25 410.42 260.45 C 408.00 255.85 403.32 253.06 399.39 249.88 C 400.60 243.42 402.58 237.15 404.53 230.89 C 405.83 227.15 406.87 223.21 409.11 219.89 C 411.21 219.09 413.01 221.30 414.30 222.69 C 420.66 230.95 424.39 241.64 422.65 252.10 C 420.62 267.46 416.28 283.70 404.91 294.88 C 398.43 301.49 388.15 302.06 379.80 299.18 C 369.79 295.93 362.32 288.05 355.68 280.25 C 347.88 293.08 338.77 305.97 325.52 313.62 C 314.43 320.52 299.75 319.69 288.49 313.64 C 280.12 309.29 274.61 301.14 270.61 292.86 C 266.18 299.24 261.09 305.31 254.66 309.75 C 244.89 316.51 232.81 319.41 221.02 319.01 C 209.01 318.95 196.10 319.88 185.26 313.71 C 177.32 309.36 172.23 301.44 168.39 293.51 C 164.32 284.50 160.87 275.23 157.54 265.94 C 151.98 274.78 147.01 284.12 139.96 291.91 C 126.90 305.27 108.37 312.08 90.03 313.86 C 77.74 315.01 64.74 314.82 53.34 309.54 C 45.93 306.15 39.57 298.69 40.55 290.10 C 41.93 282.61 44.58 275.41 47.27 268.31 C 48.83 264.74 49.89 260.67 52.99 258.06 C 55.77 262.86 55.74 269.01 59.77 273.13 C 65.26 278.76 73.36 280.66 80.92 281.55 C 91.24 282.46 101.62 281.72 111.93 280.99 C 123.91 279.96 136.67 276.17 144.59 266.57 C 150.66 259.63 152.51 250.06 152.34 241.08 C 150.54 222.03 145.75 203.45 141.63 184.81 C 139.88 175.97 137.81 167.02 138.29 157.95 C 139.60 151.21 142.96 145.07 145.74 138.85 Z" />
<path fill="#282828" d=" M 362.81 149.87 C 364.05 148.30 365.84 150.06 367.11 150.66 C 374.04 155.24 380.83 160.15 386.83 165.93 C 383.30 173.61 378.70 180.76 373.75 187.59 C 372.66 188.73 371.80 190.54 370.14 190.83 C 361.83 186.14 355.07 179.13 346.98 174.16 C 341.21 180.48 337.16 188.21 331.32 194.48 C 329.90 196.43 327.98 194.35 326.49 193.62 C 319.58 189.01 312.88 183.97 307.12 177.97 C 310.56 171.05 315.13 164.79 319.55 158.48 C 320.88 156.78 321.99 154.78 323.85 153.60 C 332.02 157.40 338.32 164.16 345.50 169.44 C 347.11 171.01 348.52 168.75 349.49 167.59 C 353.68 161.50 357.80 155.32 362.81 149.87 Z" />
<path fill="#282828" d=" M 502.12 253.24 C 505.30 246.11 508.74 239.08 512.73 232.37 C 523.32 250.08 528.97 270.44 530.71 290.92 C 531.45 300.62 531.87 310.43 530.46 320.10 C 528.37 334.64 523.20 348.56 516.92 361.78 C 509.57 375.80 500.86 389.36 489.32 400.34 C 484.03 405.51 478.16 410.30 471.32 413.24 C 463.99 416.58 455.99 418.18 448.01 418.92 C 439.05 419.58 429.89 419.94 421.14 417.55 C 410.15 414.65 399.30 410.69 389.62 404.66 C 390.35 403.60 390.84 402.23 392.06 401.62 C 401.70 402.53 411.29 404.59 421.01 404.47 C 438.38 403.65 454.30 395.16 468.14 385.18 C 482.56 374.42 495.85 361.99 506.75 347.64 C 512.55 339.57 518.19 330.90 520.12 321.00 C 521.27 316.26 519.67 311.53 517.90 307.18 C 512.91 295.03 507.15 283.22 501.75 271.25 C 500.61 268.60 499.39 265.93 498.98 263.06 C 499.15 259.57 500.88 256.43 502.12 253.24 Z" />
</svg>
